<svg version="1.1" xmlns="http://www.w3.org/2000/svg" viewBox="0 0 310 310"><defs><style type="text/css">.languagemod-a{fill:#f24130;}.languagemod-b{fill:#FFFFFF;}</style></defs><title>TYPO3 Language Modification</title><rect class="languagemod-a" width="310" height="310"/><path class="languagemod-b" d="M30,144.1c0,62.9,56.1,114.1,125,114.1c14.7,0,29.1-2.4,42.8-7c3.3,2,6.6,4.2,10.2,6.5c16.5,10.4,35.3,22.2,54.7,22.2c8.2,0,11.9-5.4,11.9-10.4c0-2.4-1.2-3.8-4.9-8.8c-7.3-9.7-24.1-32.4-17-45.3c17.7-20.2,27.3-45.5,27.3-71.3C280,81.2,223.9,30,155,30C86.1,30,30,81.2,30,144.1z M206.3,88.1l24.5,70.7c1,2.8-0.6,5.8-3.4,6.8c-2.8,1-5.8-0.6-6.8-3.4l-6.3-18h-26.2l-6.3,18c-0.8,2.2-2.8,3.7-5.1,3.7c-0.6,0-1.1-0.1-1.7-0.3c-2.8-1-4.4-4-3.4-6.8l24.5-70.7c0.8-2.2,2.8-3.7,5.1-3.7C203.5,84.3,205.5,85.9,206.3,88.1z M191.9,133.3h18.7l-9.3-26.8L191.9,133.3z M117,127.8v10.9h27.2c3,0,5.4,2.4,5.4,5.4s-2.4,5.4-5.4,5.4H96.7c2.2,7.1,7.4,19.1,18.2,30.1c8.9-8.9,13.1-16.4,13.2-16.6c1.4-2.6,4.6-3.6,7.3-2.2c2.6,1.4,3.6,4.8,2.2,7.5c-0.3,0.6-4.7,8.7-14.4,18.5c6.2,4.7,13.5,8.9,22.6,12.1c2.8,1,4.4,4,3.4,6.8c-0.8,2.3-2.8,3.7-5.1,3.7c-0.6,0-1.1-0.1-1.7-0.3c-11.2-3.8-20.2-9-27.5-14.8c-6.2,5.1-13.7,10.3-22.8,14.6c-0.8,0.4-1.6,0.5-2.4,0.5c-2,0-4-1.1-4.9-3.1c-1.3-2.7-0.2-6,2.5-7.3c7.5-3.6,13.9-7.8,19.2-12.1c-13.8-14.2-19.3-29.8-21.2-37.4h-6.5c-3,0-5.4-2.4-5.4-5.4s2.4-5.4,5.4-5.4h27.2v-10.9c0-3,2.4-5.4,5.4-5.4C114.5,122.4,117,124.8,117,127.8z"/></svg>
